<svg id="Layer_1" xmlns="http://www.w3.org/2000/svg" xmlns:xlink="http://www.w3.org/1999/xlink" viewBox="-14 130 312 84">
  <style>
    .st0{clip-path:url(#SVGID_2_);fill:#FF6C6A;} .st1{enable-background:new ;} .st2{fill:#FF6C6A;} .st3{fill:#3D3D3D;} .st4{clip-path:url(#SVGID_4_);fill:#3D3D3D;}
  </style>
  <g id="TV_3_">
    <defs>
      <path id="SVGID_1_" d="M-13 130H93.9v84H-13z"/>
    </defs>
    <clipPath id="SVGID_2_">
      <use xlink:href="#SVGID_1_" overflow="visible"/>
    </clipPath>
    <path class="st0" d="M86.3 130H-5.3c-4.1 0-7.6 3.4-7.6 7.6v61.1c0 4.2 3.5 7.6 7.6 7.6h45.8v3.8H13.8v3.8h57.3v-3.8H44.4v-3.8h42c4.1 0 7.6-3.4 7.6-7.6v-61.1c-.1-4.2-3.6-7.6-7.7-7.6zm3.8 68.7c0 2.1-1.8 3.8-3.8 3.8H-5.3c-2.1 0-3.8-1.7-3.8-3.8v-61.1c0-2.1 1.8-3.8 3.8-3.8h91.6c2.1 0 3.8 1.7 3.8 3.8v61.1z"/>
  </g>
  <path class="st1 st2" d="M49 176.9l-1.9-4.8H36.7l-1.9 4.8h-1.9l8-19.5H43l8 19.5h-2zm-7.1-17.8l-4.6 11.4h9.2l-4.6-11.4z"/>
  <path class="st1 st3" d="M240.8 176.9v-19.5h8c3.3 0 5.4 1.9 5.4 5 0 2.5-1.7 4.1-3.4 4.5 2.1.3 3.8 2.5 3.8 4.8 0 3.2-2.1 5.3-5.6 5.3h-8.2zm11.7-14.4c0-2-1.3-3.6-3.8-3.6h-6.1v7.2h6.1c2.5 0 3.8-1.6 3.8-3.6zm.4 9c0-2-1.4-3.9-4.1-3.9h-6.3v7.7h6.3c2.5.1 4.1-1.4 4.1-3.8z"/>
  <g id="TV_2_">
    <defs>
      <path id="SVGID_3_" d="M192 129h106.9v84H192z"/>
    </defs>
    <clipPath id="SVGID_4_">
      <use xlink:href="#SVGID_3_" overflow="visible"/>
    </clipPath>
    <path class="st4" d="M291.3 129h-91.6c-4.1 0-7.6 3.4-7.6 7.6v61.1c0 4.2 3.5 7.6 7.6 7.6h45.8v3.8h-26.7v3.8H276v-3.8h-26.7v-3.8h42c4.1 0 7.6-3.4 7.6-7.6v-61.1c0-4.2-3.5-7.6-7.6-7.6zm3.8 68.7c0 2.1-1.8 3.8-3.8 3.8h-91.6c-2.1 0-3.8-1.7-3.8-3.8v-61.1c0-2.1 1.8-3.8 3.8-3.8h91.6c2.1 0 3.8 1.7 3.8 3.8v61.1z"/>
  </g>
</svg>
