<?xml version="1.0" encoding="utf-8"?>
<!-- Generator: Adobe Illustrator 19.0.0, SVG Export Plug-In . SVG Version: 6.00 Build 0)  -->
<!DOCTYPE svg PUBLIC "-//W3C//DTD SVG 1.1//EN" "http://www.w3.org/Graphics/SVG/1.1/DTD/svg11.dtd">
<svg version="1.1" id="Layer_1" xmlns="http://www.w3.org/2000/svg" xmlns:xlink="http://www.w3.org/1999/xlink" x="0px" y="0px"
	 viewBox="-14 130 312 84" style="enable-background:new -14 130 312 84;" xml:space="preserve">
<style type="text/css">
	.st0{clip-path:url(#SVGID_2_);fill:#FF6C6A;}
	.st1{enable-background:new    ;}
	.st2{fill:#FF6C6A;}
	.st3{fill:#3D3D3D;}
	.st4{clip-path:url(#SVGID_4_);fill:#3D3D3D;}
</style>
<g id="TV_3_">
	<g>
		<defs>
			<rect id="SVGID_1_" x="-13" y="130" width="106.9" height="84"/>
		</defs>
		<clipPath id="SVGID_2_">
			<use xlink:href="#SVGID_1_"  style="overflow:visible;"/>
		</clipPath>
		<path class="st0" d="M86.3,130H-5.3c-4.1,0-7.6,3.4-7.6,7.6v61.1c0,4.2,3.5,7.6,7.6,7.6h45.8v3.8H13.8v3.8h57.3v-3.8H44.4v-3.8h42
			c4.1,0,7.6-3.4,7.6-7.6v-61.1C93.9,133.4,90.4,130,86.3,130z M90.1,198.7c0,2.1-1.8,3.8-3.8,3.8H-5.3c-2.1,0-3.8-1.7-3.8-3.8
			v-61.1c0-2.1,1.8-3.8,3.8-3.8h91.6c2.1,0,3.8,1.7,3.8,3.8L90.1,198.7L90.1,198.7z"/>
	</g>
</g>
<g class="st1">
	<path class="st2" d="M49,176.9l-1.9-4.8H36.7l-1.9,4.8h-1.9l8-19.5h2.1l8,19.5H49z M41.9,159.1l-4.6,11.4h9.2L41.9,159.1z"/>
</g>
<g class="st1">
	<path class="st3" d="M240.8,176.9v-19.5h8c3.3,0,5.4,1.9,5.4,5c0,2.5-1.7,4.1-3.4,4.5c2.1,0.3,3.8,2.5,3.8,4.8
		c0,3.2-2.1,5.3-5.6,5.3H240.8z M252.5,162.5c0-2-1.3-3.6-3.8-3.6h-6.1v7.2h6.1C251.2,166.1,252.5,164.5,252.5,162.5z M252.9,171.5
		c0-2-1.4-3.9-4.1-3.9h-6.3v7.7h6.3C251.3,175.4,252.9,173.9,252.9,171.5z"/>
</g>
<g id="TV_2_">
	<g>
		<defs>
			<rect id="SVGID_3_" x="192" y="129" width="106.9" height="84"/>
		</defs>
		<clipPath id="SVGID_4_">
			<use xlink:href="#SVGID_3_"  style="overflow:visible;"/>
		</clipPath>
		<path class="st4" d="M291.3,129h-91.6c-4.1,0-7.6,3.4-7.6,7.6v61.1c0,4.2,3.5,7.6,7.6,7.6h45.8v3.8h-26.7v3.8H276v-3.8h-26.7v-3.8
			h42c4.1,0,7.6-3.4,7.6-7.6v-61.1C298.9,132.4,295.4,129,291.3,129z M295.1,197.7c0,2.1-1.8,3.8-3.8,3.8h-91.6
			c-2.1,0-3.8-1.7-3.8-3.8v-61.1c0-2.1,1.8-3.8,3.8-3.8h91.6c2.1,0,3.8,1.7,3.8,3.8V197.7z"/>
	</g>
</g>
</svg>
