<?xml version="1.0" encoding="utf-8"?>
<!-- Generator: Adobe Illustrator 19.0.0, SVG Export Plug-In . SVG Version: 6.00 Build 0)  -->
<!DOCTYPE svg PUBLIC "-//W3C//DTD SVG 1.1//EN" "http://www.w3.org/Graphics/SVG/1.1/DTD/svg11.dtd">
<svg version="1.1" id="Layer_1" xmlns="http://www.w3.org/2000/svg" xmlns:xlink="http://www.w3.org/1999/xlink" x="0px" y="0px"
	 viewBox="-14 130 312 84" style="enable-background:new -14 130 312 84;" xml:space="preserve">
<style type="text/css">
	.st0{fill:#3D3D3D;}
	.st1{fill:#FF6C6A;}
	.st2{font-family:'ProximaNova-Light';}
	.st3{font-size:28px;}
</style>
<g id="TV_1_">
	<path class="st0" d="M290.4,130.1h-91.3c-4.1,0-7.6,3.4-7.6,7.6v60.9c0,4.2,3.5,7.6,7.6,7.6h45.7v3.8h-26.6v3.8h57.1v-3.8h-26.6
		v-3.8h41.9c4.1,0,7.6-3.4,7.6-7.6v-60.9C298,133.6,294.5,130.1,290.4,130.1z M294.2,198.6c0,2.1-1.8,3.8-3.8,3.8h-91.3
		c-2.1,0-3.8-1.7-3.8-3.8v-60.9c0-2.1,1.8-3.8,3.8-3.8h91.3c2.1,0,3.8,1.7,3.8,3.8V198.6z"/>
</g>
<g id="TV_2_">
	<path class="st1" d="M84.9,130.1H-6.4c-4.1,0-7.6,3.4-7.6,7.6v60.9c0,4.2,3.5,7.6,7.6,7.6h45.7v3.8H12.6v3.8h57.1v-3.8H43.1v-3.8
		h41.9c4.1,0,7.6-3.4,7.6-7.6v-60.9C92.5,133.6,89.1,130.1,84.9,130.1z M88.7,198.6c0,2.1-1.8,3.8-3.8,3.8H-6.4
		c-2.1,0-3.8-1.7-3.8-3.8v-60.9c0-2.1,1.8-3.8,3.8-3.8h91.3c2.1,0,3.8,1.7,3.8,3.8V198.6z"/>
</g>
<text transform="matrix(1 0 0 1 31.6665 176.6663)" class="st1 st2 st3">A</text>
<text transform="matrix(1 0 0 1 237.6665 175.6663)" class="st0 st2 st3">B</text>
</svg>
